<?xml version="1.0" standalone="no"?>
<!DOCTYPE svg PUBLIC "-//W3C//DTD SVG 20010904//EN"
 "http://www.w3.org/TR/2001/REC-SVG-20010904/DTD/svg10.dtd">
<svg version="1.0" xmlns="http://www.w3.org/2000/svg"
 width="512.000000pt" height="512.000000pt" viewBox="0 0 512.000000 512.000000"
 preserveAspectRatio="xMidYMid meet">

<g transform="translate(0.000000,512.000000) scale(0.100000,-0.100000)"
fill="#000000" stroke="none">
<path d="M2305 4679 c-207 -26 -457 -97 -637 -182 -97 -45 -278 -147 -278
-157 0 -3 69 -74 153 -158 l152 -152 85 44 c547 284 1195 250 1715 -88 246
-161 447 -386 586 -658 243 -477 246 -1035 9 -1514 l-59 -119 152 -152 c83
-84 154 -153 158 -153 11 0 129 215 173 315 81 185 140 404 166 615 13 110 13
355 -1 478 -80 730 -545 1377 -1217 1694 -197 93 -445 163 -667 188 -107 12
-391 11 -490 -1z"/>
<path d="M445 4370 l-150 -150 242 -243 242 -242 -46 -75 c-152 -252 -256
-557 -293 -860 -13 -110 -13 -355 1 -478 52 -477 267 -922 613 -1268 342 -342
767 -550 1246 -610 133 -16 379 -18 500 -4 302 37 620 145 860 293 l75 46 243
-242 244 -242 144 149 c79 82 144 151 144 155 0 3 -881 887 -1958 1964 l-1957
1957 -150 -150z m1832 -2167 c-16 -17 -32 -3 -315 280 -163 163 -302 297 -307
297 -11 0 -295 -281 -295 -292 0 -9 889 -898 898 -898 4 0 81 74 172 165 l165
165 412 -412 c226 -226 410 -416 407 -420 -3 -5 -45 -28 -92 -52 -551 -276
-1200 -235 -1712 110 -657 441 -927 1285 -645 2014 33 87 99 224 118 248 8 10
146 -122 611 -587 572 -572 600 -601 583 -618z"/>
<path d="M3177 3102 l-277 -277 153 -153 152 -152 278 278 c152 152 277 282
277 287 0 13 -282 295 -295 295 -6 0 -135 -125 -288 -278z"/>
</g>
</svg>
