<?xml version="1.0" standalone="no"?>
<!DOCTYPE svg PUBLIC "-//W3C//DTD SVG 20010904//EN"
 "http://www.w3.org/TR/2001/REC-SVG-20010904/DTD/svg10.dtd">
<svg version="1.0" xmlns="http://www.w3.org/2000/svg"
 width="512.000000pt" height="512.000000pt" viewBox="0 0 512.000000 512.000000"
 preserveAspectRatio="xMidYMid meet">

<g transform="translate(0.000000,512.000000) scale(0.100000,-0.100000)"
fill="#000000" stroke="none">
<path d="M2335 4683 c-83 -8 -264 -43 -360 -71 -366 -106 -682 -297 -950 -573
-229 -236 -387 -494 -486 -791 -85 -252 -115 -467 -106 -762 9 -327 71 -580
213 -871 128 -264 348 -537 584 -726 222 -178 516 -325 785 -393 216 -54 273
-60 545 -60 278 0 339 7 560 65 504 133 961 472 1245 924 216 343 325 724 325
1135 0 477 -139 893 -433 1289 -333 451 -889 770 -1449 830 -90 10 -381 12
-473 4z m380 -424 c700 -60 1257 -498 1468 -1154 163 -506 85 -1080 -206
-1518 -331 -497 -934 -779 -1552 -728 -397 33 -728 171 -1015 424 -443 389
-645 1030 -520 1647 119 587 544 1063 1111 1247 245 80 459 104 714 82z"/>
<path d="M2878 2863 l-638 -638 -320 320 -320 320 -152 -153 -153 -152 473
-473 472 -472 792 792 793 793 -150 150 c-82 82 -152 150 -155 150 -3 0 -292
-287 -642 -637z"/>
</g>
</svg>
